<svg xmlns="http://www.w3.org/2000/svg" xmlns:xlink="http://www.w3.org/1999/xlink" width="102.031" height="102.032" viewBox="0 0 102.031 102.032">
  <defs>
    <filter id="Trazado_874925" x="0" y="0" width="102.031" height="102.032" filterUnits="userSpaceOnUse">
      <feOffset dy="3" input="SourceAlpha"/>
      <feGaussianBlur stdDeviation="3" result="blur"/>
      <feFlood flood-opacity="0.161"/>
      <feComposite operator="in" in2="blur"/>
      <feComposite in="SourceGraphic"/>
    </filter>
  </defs>
  <g id="Grupo_1176982" data-name="Grupo 1176982" transform="translate(9 6)">
    <g transform="matrix(1, 0, 0, 1, -9, -6)" filter="url(#Trazado_874925)">
      <g id="Trazado_874925-2" data-name="Trazado 874925" transform="translate(9 6)" fill="#f3d913">
        <path d="M 42.01562881469727 82.53167724609375 C 36.54539489746094 82.53167724609375 31.23958206176758 81.46066284179688 26.24558258056641 79.34838104248047 C 21.42118263244629 77.30782318115234 17.0881233215332 74.38629913330078 13.36675834655762 70.66493225097656 C 9.645393371582031 66.94356536865234 6.723852157592773 62.61050796508789 4.683310985565186 57.7861213684082 C 2.571028709411621 52.79212188720703 1.50000524520874 47.48632049560547 1.50000524520874 42.01608657836914 C 1.50000524520874 36.54536819458008 2.571028709411621 31.23956871032715 4.683310985565186 26.24556732177734 C 6.723852157592773 21.42116737365723 9.645393371582031 17.08810997009277 13.36675834655762 13.36674404144287 C 17.0881233215332 9.645380020141602 21.42118263244629 6.723850250244141 26.24558258056641 4.683309078216553 C 31.23958206176758 2.571015119552612 36.54539489746094 1.500003337860107 42.01562881469727 1.500003337860107 C 47.48586273193359 1.500003337860107 52.79167556762695 2.571015119552612 57.78568649291992 4.683309078216553 C 62.61007690429688 6.723850250244141 66.94314575195312 9.645380020141602 70.66451263427734 13.36674404144287 C 74.38587951660156 17.08810997009277 77.30741882324219 21.42116737365723 79.34796142578125 26.24556732177734 C 81.46024322509766 31.23956871032715 82.53126525878906 36.54536819458008 82.53126525878906 42.01560211181641 C 82.53126525878906 47.48632049560547 81.46024322509766 52.79212188720703 79.34796142578125 57.7861213684082 C 77.30741882324219 62.61050796508789 74.38587951660156 66.94356536865234 70.66451263427734 70.66493225097656 C 66.94314575195312 74.38629913330078 62.61007690429688 77.30782318115234 57.78568649291992 79.34838104248047 C 52.79167556762695 81.46066284179688 47.48586273193359 82.53167724609375 42.01562881469727 82.53167724609375 Z" stroke="none"/>
        <path d="M 42.01562881469727 3 C 36.74723052978516 3 31.63801574707031 4.031143188476562 26.82989501953125 6.064811706542969 C 22.18430709838867 8.029731750488281 18.01150512695312 10.84330749511719 14.42741394042969 14.42739868164062 C 10.84332275390625 18.01148986816406 8.029731750488281 22.18429183959961 6.064811706542969 26.82989120483398 C 4.031150817871094 31.63800048828125 3 36.74720001220703 3 42.01607894897461 C 3 47.28447723388672 4.031150817871094 52.39369201660156 6.064811706542969 57.20179748535156 C 8.029731750488281 61.84738540649414 10.84332275390625 66.02018737792969 14.42741394042969 69.60427856445312 C 18.01150512695312 73.18836975097656 22.18430709838867 76.00196075439453 26.82989501953125 77.96688079833984 C 31.63801574707031 80.00053405761719 36.74723052978516 81.03167724609375 42.01562881469727 81.03167724609375 C 47.28402709960938 81.03167724609375 52.39324188232422 80.00053405761719 57.20134735107422 77.96688079833984 C 61.84694671630859 76.00196075439453 66.01974487304688 73.18836975097656 69.60384368896484 69.60427856445312 C 73.18793487548828 66.02018737792969 76.00152587890625 61.84738540649414 77.96644592285156 57.20179748535156 C 80.00010681152344 52.39369201660156 81.03125762939453 47.28447723388672 81.03125762939453 42.01559829711914 C 81.03125762939453 36.74720001220703 80.00010681152344 31.63800048828125 77.96644592285156 26.82989120483398 C 76.00152587890625 22.18429183959961 73.18793487548828 18.01148986816406 69.60384368896484 14.42739868164062 C 66.01974487304688 10.84330749511719 61.84694671630859 8.029731750488281 57.20134735107422 6.064811706542969 C 52.39324188232422 4.031143188476562 47.28402709960938 3 42.01562881469727 3 M 42.01562881469727 0 C 65.22021484375 0 84.03125762939453 18.81102752685547 84.03125762939453 42.01559829711914 L 84.03125762939453 42.01607894897461 C 84.03125762939453 65.22066497802734 65.22021484375 84.03167724609375 42.01562881469727 84.03167724609375 C 18.81102752685547 84.03167724609375 0 65.22066497802734 0 42.01607894897461 L 0 42.01559829711914 C 0 18.81102752685547 18.81102752685547 0 42.01562881469727 0 Z" stroke="none" fill="#fff"/>
      </g>
    </g>
    <g id="Layer_2" data-name="Layer 2" transform="translate(12.836 12.836)">
      <path id="Trazado_897972" data-name="Trazado 897972" d="M56.238,25.554l-2.418-.3a24.63,24.63,0,0,0-1.177-4.421l1.936-1.467a1.834,1.834,0,0,0,.481-2.384l-2.048-3.548a1.834,1.834,0,0,0-2.3-.773l-2.244.947a24.847,24.847,0,0,0-3.235-3.235l.947-2.238a1.834,1.834,0,0,0-.773-2.3L41.859,3.784a1.834,1.834,0,0,0-2.379.481L38.013,6.2a24.63,24.63,0,0,0-4.421-1.177l-.3-2.418A1.834,1.834,0,0,0,31.471,1h-4.1a1.834,1.834,0,0,0-1.82,1.607l-.3,2.417A24.63,24.63,0,0,0,20.831,6.2L19.364,4.265a1.834,1.834,0,0,0-2.384-.481L13.437,5.832a1.834,1.834,0,0,0-.773,2.3l.947,2.244a24.847,24.847,0,0,0-3.235,3.235l-2.244-.947a1.834,1.834,0,0,0-2.3.773L3.784,16.985a1.834,1.834,0,0,0,.481,2.384L6.2,20.836a24.63,24.63,0,0,0-1.177,4.421l-2.418.3A1.834,1.834,0,0,0,1,27.374v4.1a1.834,1.834,0,0,0,1.607,1.82l2.417.3A24.63,24.63,0,0,0,6.2,38.014L4.265,39.481a1.834,1.834,0,0,0-.481,2.379l2.048,3.548a1.834,1.834,0,0,0,2.3.773l2.244-.947a24.847,24.847,0,0,0,3.235,3.235l-.947,2.243a1.834,1.834,0,0,0,.773,2.3l3.548,2.048a1.834,1.834,0,0,0,2.384-.481l1.467-1.936a24.63,24.63,0,0,0,4.421,1.177l.3,2.418a1.834,1.834,0,0,0,1.814,1.606h4.1a1.834,1.834,0,0,0,1.82-1.607l.3-2.417a24.631,24.631,0,0,0,4.421-1.177l1.467,1.936a1.834,1.834,0,0,0,2.379.481l3.548-2.048a1.834,1.834,0,0,0,.773-2.3l-.947-2.244a24.846,24.846,0,0,0,3.235-3.235l2.244.947a1.834,1.834,0,0,0,2.3-.773l2.048-3.548a1.834,1.834,0,0,0-.481-2.379l-1.936-1.467a24.63,24.63,0,0,0,1.177-4.421l2.418-.3a1.834,1.834,0,0,0,1.605-1.819v-4.1a1.834,1.834,0,0,0-1.607-1.82ZM29.5,48.755A19.293,19.293,0,1,1,48.793,29.462,19.293,19.293,0,0,1,29.5,48.755Z" transform="translate(-0.083 -0.083)" fill="#f8c460"/>
      <path id="Trazado_897973" data-name="Trazado 897973" d="M24.926,18.452l-.647-.648a2.751,2.751,0,0,0-3.885,0l1.295,1.3A1.831,1.831,0,0,1,19.1,21.689l-1.3-1.3a2.751,2.751,0,0,0,0,3.885l.648.647a2.751,2.751,0,0,0,3.884,0L36.579,39.169a2.751,2.751,0,0,0,0,3.884l.647.648a2.751,2.751,0,0,0,3.885,0l-1.295-1.3a1.831,1.831,0,0,1,2.589-2.589l1.3,1.3a2.751,2.751,0,0,0,0-3.885l-.648-.647a2.751,2.751,0,0,0-3.884,0L24.926,22.336a2.751,2.751,0,0,0,0-3.884Z" transform="translate(-1.414 -1.414)" fill="#d6e4e8"/>
      <path id="Trazado_897974" data-name="Trazado 897974" d="M38.6,42.633l-.647-.647a2.751,2.751,0,0,1,0-3.884L23.712,23.859a2.751,2.751,0,0,1-3.884,0l-.647-.647a2.742,2.742,0,0,1-.8-1.938l-.57-.571a2.751,2.751,0,0,0,0,3.885l.647.647a2.751,2.751,0,0,0,3.884,0L36.579,39.477a2.751,2.751,0,0,0,0,3.884l.647.647a2.751,2.751,0,0,0,3.885,0l-.571-.57A2.742,2.742,0,0,1,38.6,42.633Z" transform="translate(-1.414 -1.721)" fill="#baced3"/>
      <path id="Trazado_897975" data-name="Trazado 897975" d="M25.783,33.368l3.841,3.841L23.136,43.7a2.715,2.715,0,0,1-3.84-3.84Z" transform="translate(-1.538 -2.775)" fill="#7a838b"/>
      <path id="Trazado_897976" data-name="Trazado 897976" d="M27.8,35.557l-6.488,6.487a2.7,2.7,0,0,1-2.681.675,2.677,2.677,0,0,0,.675,1.159,2.714,2.714,0,0,0,3.84,0l6.488-6.487Z" transform="translate(-1.549 -2.957)" fill="#5d6972"/>
      <path id="Trazado_897977" data-name="Trazado 897977" d="M39.856,20.14l3.2-.64-.64,3.2L29.7,35.416l-2.561-2.561Z" transform="translate(-2.257 -1.621)" fill="#d6e4e8"/>
      <path id="Trazado_897978" data-name="Trazado 897978" d="M42.06,19.729a6.912,6.912,0,0,1-1.892,3.535L28.934,34.5l.917.917L42.564,22.7l.642-3.2Z" transform="translate(-2.406 -1.621)" fill="#baced3"/>
      <path id="Trazado_897979" data-name="Trazado 897979" d="M45.935,51.175A28.435,28.435,0,0,1,8.711,13.951L8.129,13.7a1.834,1.834,0,0,0-2.3.773L3.78,18.026a1.834,1.834,0,0,0,.481,2.384L6.2,21.877A24.63,24.63,0,0,0,5.02,26.3L2.6,26.6A1.834,1.834,0,0,0,1,28.418v4.1a1.834,1.834,0,0,0,1.607,1.82l2.417.3A24.63,24.63,0,0,0,6.2,39.058L4.265,40.525A1.834,1.834,0,0,0,3.784,42.9l2.048,3.548a1.834,1.834,0,0,0,2.3.773l2.244-.947a24.847,24.847,0,0,0,3.235,3.235l-.947,2.243a1.834,1.834,0,0,0,.773,2.3l3.548,2.048a1.834,1.834,0,0,0,2.384-.481l1.467-1.936a24.63,24.63,0,0,0,4.421,1.177l.3,2.418a1.834,1.834,0,0,0,1.814,1.606h4.1a1.834,1.834,0,0,0,1.82-1.607l.3-2.417a24.63,24.63,0,0,0,4.421-1.177l1.467,1.936a1.834,1.834,0,0,0,2.379.481l3.548-2.048a1.834,1.834,0,0,0,.773-2.3Z" transform="translate(-0.083 -1.128)" fill="#faaf42"/>
      <path id="Trazado_897980" data-name="Trazado 897980" d="M30.25,10A20.211,20.211,0,1,0,50.461,30.211,20.211,20.211,0,0,0,30.25,10Zm0,38.587A18.377,18.377,0,1,1,48.627,30.21,18.377,18.377,0,0,1,30.25,48.587Z" transform="translate(-0.835 -0.832)"/>
      <path id="Trazado_897981" data-name="Trazado 897981" d="M56.269,24.561l-1.751-.219a25.663,25.663,0,0,0-.869-3.269l1.4-1.061a2.751,2.751,0,0,0,.722-3.567l-2.045-3.55a2.751,2.751,0,0,0-3.455-1.159l-1.626.686a25.929,25.929,0,0,0-2.391-2.391l.687-1.624a2.751,2.751,0,0,0-1.16-3.456L42.235,2.906a2.756,2.756,0,0,0-3.568.722l-1.061,1.4a25.727,25.727,0,0,0-3.269-.87l-.219-1.75A2.751,2.751,0,0,0,31.387,0h-4.1a2.751,2.751,0,0,0-2.729,2.41l-.219,1.75a25.726,25.726,0,0,0-3.269.87l-1.061-1.4a2.756,2.756,0,0,0-3.568-.722L12.9,4.951a2.751,2.751,0,0,0-1.16,3.456l.686,1.625a25.929,25.929,0,0,0-2.391,2.391l-1.624-.687a2.751,2.751,0,0,0-3.456,1.159l-2.045,3.55a2.751,2.751,0,0,0,.722,3.567l1.4,1.062a25.663,25.663,0,0,0-.869,3.269l-1.751.219A2.751,2.751,0,0,0,0,27.291v4.1a2.751,2.751,0,0,0,2.41,2.729l1.751.219a25.664,25.664,0,0,0,.869,3.269l-1.4,1.061a2.751,2.751,0,0,0-.722,3.567l2.049,3.55a2.756,2.756,0,0,0,3.45,1.159l1.626-.686a25.928,25.928,0,0,0,2.391,2.391l-.687,1.624a2.751,2.751,0,0,0,1.16,3.456l3.548,2.048a2.755,2.755,0,0,0,3.568-.722l1.061-1.4a25.726,25.726,0,0,0,3.269.87l.219,1.75a2.751,2.751,0,0,0,2.729,2.406h4.1a2.751,2.751,0,0,0,2.729-2.41l.219-1.75a25.727,25.727,0,0,0,3.269-.87l1.061,1.4a2.756,2.756,0,0,0,3.568.722l3.548-2.048a2.751,2.751,0,0,0,1.16-3.452l-.686-1.625a25.928,25.928,0,0,0,2.391-2.391l1.625.685a2.751,2.751,0,0,0,3.455-1.157l2.048-3.55a2.751,2.751,0,0,0-.722-3.567l-1.4-1.062a25.665,25.665,0,0,0,.869-3.269l1.751-.219a2.751,2.751,0,0,0,2.406-2.729v-4.1a2.751,2.751,0,0,0-2.41-2.729Zm.576,6.826a.917.917,0,0,1-.8.91l-2.418.3a.917.917,0,0,0-.79.756A23.718,23.718,0,0,1,51.7,37.613a.917.917,0,0,0,.306,1.049l1.936,1.467a.917.917,0,0,1,.241,1.192l-2.048,3.55a.917.917,0,0,1-1.151.384l-2.244-.946a.917.917,0,0,0-1.065.256,24.108,24.108,0,0,1-3.117,3.117.917.917,0,0,0-.259,1.061l.946,2.243a.917.917,0,0,1-.386,1.151l-3.544,2.05a.917.917,0,0,1-1.192-.24l-1.467-1.936a.917.917,0,0,0-1.05-.306,23.81,23.81,0,0,1-4.257,1.133.917.917,0,0,0-.755.789l-.3,2.418a.917.917,0,0,1-.91.8H27.291a.917.917,0,0,1-.91-.8l-.3-2.418a.917.917,0,0,0-.755-.789A23.81,23.81,0,0,1,21.066,51.7a.917.917,0,0,0-1.05.306l-1.467,1.936a.917.917,0,0,1-1.192.24l-3.549-2.049a.917.917,0,0,1-.385-1.151l.946-2.243a.917.917,0,0,0-.259-1.061,24.108,24.108,0,0,1-3.117-3.117.917.917,0,0,0-1.062-.259l-2.238.946a.917.917,0,0,1-1.15-.385l-2.051-3.55a.917.917,0,0,1,.241-1.192L6.67,38.658a.917.917,0,0,0,.306-1.049,23.718,23.718,0,0,1-1.133-4.256.917.917,0,0,0-.79-.756l-2.418-.3a.917.917,0,0,1-.8-.907v-4.1a.917.917,0,0,1,.8-.91l2.418-.3a.917.917,0,0,0,.79-.756,23.718,23.718,0,0,1,1.133-4.256.917.917,0,0,0-.306-1.049L4.736,18.55a.917.917,0,0,1-.241-1.192l2.048-3.55a.917.917,0,0,1,1.151-.384l2.244.946A.917.917,0,0,0,11,14.114,24.107,24.107,0,0,1,14.119,11a.917.917,0,0,0,.259-1.061l-.952-2.242a.917.917,0,0,1,.386-1.151l3.549-2.051a.917.917,0,0,1,1.192.24L20.02,6.669a.917.917,0,0,0,1.05.306,23.81,23.81,0,0,1,4.257-1.133.917.917,0,0,0,.755-.789l.3-2.418a.917.917,0,0,1,.906-.8h4.1a.917.917,0,0,1,.91.8l.3,2.418a.917.917,0,0,0,.755.789,23.81,23.81,0,0,1,4.257,1.133.917.917,0,0,0,1.05-.306L40.13,4.735a.917.917,0,0,1,1.192-.24l3.549,2.049a.917.917,0,0,1,.385,1.151l-.946,2.243A.917.917,0,0,0,44.564,11a24.108,24.108,0,0,1,3.117,3.117.917.917,0,0,0,1.062.259l2.244-.947a.917.917,0,0,1,1.15.385l2.049,3.545a.917.917,0,0,1-.241,1.192L52.008,20.02a.917.917,0,0,0-.306,1.049,23.717,23.717,0,0,1,1.133,4.256.917.917,0,0,0,.79.756l2.418.3a.917.917,0,0,1,.8.91Z" transform="translate(0 0)"/>
      <path id="Trazado_897982" data-name="Trazado 897982" d="M39.169,35.282l-4.628-4.627,7.6-7.6a.917.917,0,0,0,.25-.468l.642-3.2a.917.917,0,0,0-1.084-1.081l-3.2.642a.926.926,0,0,0-.469.25l-7.6,7.6-4.623-4.63a3.667,3.667,0,0,0-.567-4.449l-.647-.647a3.662,3.662,0,0,0-5.181,0,.917.917,0,0,0,0,1.3l1.295,1.3a.917.917,0,0,1,0,1.293.935.935,0,0,1-1.293,0l-1.3-1.293a.917.917,0,0,0-1.3,0,3.667,3.667,0,0,0,0,5.181l.647.647a3.667,3.667,0,0,0,4.45.566L26.8,30.689l-.584.585a.917.917,0,0,0-1.284.006l-6.487,6.487A3.633,3.633,0,0,0,23.578,42.9l6.488-6.488a.917.917,0,0,0,.006-1.284l.585-.585,4.625,4.624a3.667,3.667,0,0,0,.567,4.449l.647.647a3.662,3.662,0,0,0,5.181,0,.917.917,0,0,0,0-1.3l-1.295-1.3a.917.917,0,0,1,0-1.293.935.935,0,0,1,1.293,0l1.3,1.295a.917.917,0,0,0,1.3,0,3.667,3.667,0,0,0,0-5.181l-.647-.647a3.667,3.667,0,0,0-4.45-.563Zm.211-14.589,1.58-.316-.314,1.582L28.775,33.827l-1.264-1.263ZM22.9,24.195a.917.917,0,0,0-1.3,0,1.834,1.834,0,0,1-2.587,0l-.648-.648a1.834,1.834,0,0,1-.473-1.764l.472.471a2.813,2.813,0,0,0,3.887,0,2.751,2.751,0,0,0,0-3.886l-.473-.474a1.863,1.863,0,0,1,1.767.476l.647.647a1.834,1.834,0,0,1,0,2.587.917.917,0,0,0,0,1.3l5.19,5.194-1.292,1.291ZM22.28,41.6a1.8,1.8,0,1,1-2.543-2.545l5.838-5.838,2.544,2.544Zm21.165-2.046-.473-.472a2.813,2.813,0,0,0-3.887,0,2.751,2.751,0,0,0,0,3.886l.473.474a1.864,1.864,0,0,1-1.767-.476l-.647-.647a1.834,1.834,0,0,1,0-2.587.917.917,0,0,0,0-1.3l-5.19-5.194,1.293-1.293,5.194,5.193a.917.917,0,0,0,1.3,0,1.834,1.834,0,0,1,2.587,0l.648.648a1.834,1.834,0,0,1,.474,1.765Z" transform="translate(-1.331 -1.33)"/>
      <path id="Trazado_897983" data-name="Trazado 897983" d="M26.232,37.269a.917.917,0,0,0-1.3,0l-3.667,3.667a.917.917,0,1,0,1.3,1.3l3.667-3.667A.917.917,0,0,0,26.232,37.269Z" transform="translate(-1.746 -3.077)"/>
    </g>
  </g>
</svg>
