<svg xmlns="http://www.w3.org/2000/svg" xmlns:xlink="http://www.w3.org/1999/xlink" width="101.656" height="101.656" viewBox="0 0 101.656 101.656">
  <defs>
    <filter id="Trazado_982547" x="0" y="0" width="101.656" height="101.656" filterUnits="userSpaceOnUse">
      <feOffset dy="3" input="SourceAlpha"/>
      <feGaussianBlur stdDeviation="3" result="blur"/>
      <feFlood flood-opacity="0.161"/>
      <feComposite operator="in" in2="blur"/>
      <feComposite in="SourceGraphic"/>
    </filter>
  </defs>
  <g id="Grupo_1176814" data-name="Grupo 1176814" transform="translate(-194.237 -8612)">
    <g id="Grupo_1176787" data-name="Grupo 1176787" transform="translate(203.237 8618)">
      <g id="Grupo_1171049" data-name="Grupo 1171049" transform="translate(0 0)">
        <g id="Grupo_1148525" data-name="Grupo 1148525" transform="translate(0)">
          <g transform="matrix(1, 0, 0, 1, -9, -6)" filter="url(#Trazado_982547)">
            <g id="Trazado_982547-2" data-name="Trazado 982547" transform="translate(9 6)" fill="#efd42f">
              <path d="M 41.828125 82.15625762939453 C 36.38320922851562 82.15625762939453 31.10194778442383 81.09019470214844 26.13106536865234 78.98768615722656 C 21.32899475097656 76.95658111572266 17.01598358154297 74.04856872558594 13.311842918396 70.34442138671875 C 9.60768985748291 66.64026641845703 6.69967794418335 62.32725524902344 4.668571949005127 57.52519607543945 C 2.566066265106201 52.55430221557617 1.500007390975952 47.27304077148438 1.500007390975952 41.828125 C 1.500007390975952 36.38320922851562 2.566066265106201 31.10194778442383 4.668571949005127 26.13106536865234 C 6.69967794418335 21.32899475097656 9.60768985748291 17.01598358154297 13.311842918396 13.311842918396 C 17.01598358154297 9.60768985748291 21.32899475097656 6.69967794418335 26.13106536865234 4.668571949005127 C 31.10194778442383 2.566066265106201 36.38320922851562 1.500007390975952 41.828125 1.500007390975952 C 47.27304077148438 1.500007390975952 52.55430221557617 2.566066265106201 57.52519607543945 4.668571949005127 C 62.32725524902344 6.69967794418335 66.64026641845703 9.60768985748291 70.34442138671875 13.311842918396 C 74.04856872558594 17.01598358154297 76.95658111572266 21.32899475097656 78.98768615722656 26.13106536865234 C 81.09019470214844 31.10194778442383 82.15625762939453 36.38320922851562 82.15625762939453 41.828125 C 82.15625762939453 47.27304077148438 81.09019470214844 52.55430221557617 78.98768615722656 57.52519607543945 C 76.95658111572266 62.32725524902344 74.04856872558594 66.64026641845703 70.34442138671875 70.34442138671875 C 66.64026641845703 74.04856872558594 62.32725524902344 76.95658111572266 57.52519607543945 78.98768615722656 C 52.55430221557617 81.09019470214844 47.27304077148438 82.15625762939453 41.828125 82.15625762939453 Z" stroke="none"/>
              <path d="M 41.828125 2.999992370605469 C 36.58504486083984 2.999992370605469 31.5003776550293 4.026191711425781 26.71537780761719 6.050071716308594 C 22.09211349487305 8.00555419921875 17.93936157226562 10.80561828613281 14.37248229980469 14.37249755859375 C 10.80561828613281 17.93936157226562 8.00555419921875 22.09212493896484 6.050071716308594 26.71539306640625 C 4.026191711425781 31.5003776550293 2.999992370605469 36.58504486083984 2.999992370605469 41.828125 C 2.999992370605469 47.07120513916016 4.026191711425781 52.1558723449707 6.050071716308594 56.94085693359375 C 8.005538940429688 61.56412506103516 10.80560302734375 65.71688842773438 14.37248229980469 69.28375244140625 C 17.93936157226562 72.85063171386719 22.09211349487305 75.65069580078125 26.71537780761719 77.60616302490234 C 31.5003776550293 79.63005828857422 36.58503341674805 80.65624237060547 41.828125 80.65624237060547 C 47.07120513916016 80.65624237060547 52.1558723449707 79.63005828857422 56.94085693359375 77.60616302490234 C 61.56414031982422 75.65069580078125 65.71688842773438 72.85063171386719 69.28375244140625 69.28375244140625 C 72.85063171386719 65.71688842773438 75.65069580078125 61.56414031982422 77.60616302490234 56.94085693359375 C 79.63005828857422 52.1558723449707 80.65624237060547 47.07120513916016 80.65624237060547 41.828125 C 80.65624237060547 36.58504486083984 79.63005828857422 31.5003776550293 77.60616302490234 26.71539306640625 C 75.65069580078125 22.09212493896484 72.85063171386719 17.93936157226562 69.28375244140625 14.37249755859375 C 65.71688842773438 10.80561828613281 61.56412506103516 8.00555419921875 56.94085693359375 6.050071716308594 C 52.1558723449707 4.026191711425781 47.07120513916016 2.999992370605469 41.828125 2.999992370605469 M 41.828125 -7.62939453125e-06 C 64.92916870117188 -7.62939453125e-06 83.65624237060547 18.72709655761719 83.65624237060547 41.828125 C 83.65624237060547 64.92916870117188 64.92916870117188 83.65624237060547 41.828125 83.65624237060547 C 18.72708129882812 83.65624237060547 -7.62939453125e-06 64.92916870117188 -7.62939453125e-06 41.828125 C -7.62939453125e-06 18.72709655761719 18.72708129882812 -7.62939453125e-06 41.828125 -7.62939453125e-06 Z" stroke="none" fill="#fff"/>
            </g>
          </g>
        </g>
      </g>
    </g>
    <g id="Layer_x0020_1" transform="translate(219.95 8632.014)">
      <path id="Trazado_1033130" data-name="Trazado 1033130" d="M13.452,18.249c-4.983,0-8.84-5.036-10.39-9.824A4.379,4.379,0,0,1,.443,4.492,4.731,4.731,0,0,1,2.788.463a.63.63,0,0,1,.307-.08H23.81a.631.631,0,0,1,.307.08,4.733,4.733,0,0,1,2.345,4.029,4.38,4.38,0,0,1-2.62,3.933c-1.55,4.788-5.407,9.824-10.39,9.824ZM3.268,1.645A3.5,3.5,0,0,0,1.7,4.492,3.117,3.117,0,0,0,3.769,7.344a.628.628,0,0,1,.406.416c1.353,4.444,4.832,9.227,9.276,9.227S21.375,12.2,22.728,7.76a.632.632,0,0,1,.407-.416A3.116,3.116,0,0,0,25.2,4.492a3.5,3.5,0,0,0-1.564-2.847H3.268Z" transform="translate(11.728 11.714)" fill-rule="evenodd"/>
      <path id="Trazado_1033131" data-name="Trazado 1033131" d="M21.861,13.358H1.138a.631.631,0,0,1-.631-.649l.018-.616a.538.538,0,0,1,0-.057L1.2,6.381C1.73,1.973,6.75,0,11.491,0c4.592,0,9.773,2,10.3,6.382l.675,5.655c0,.019,0,.038,0,.057l.014.511a.633.633,0,0,1-.619.754ZM1.793,12.1H21.2l-.664-5.566c-.432-3.621-4.991-5.27-9.043-5.27s-8.6,1.65-9.035,5.27L1.793,12.1Z" transform="translate(13.685 0.001)" fill-rule="evenodd"/>
      <path id="Trazado_1033132" data-name="Trazado 1033132" d="M18.148,5.659a6.141,6.141,0,0,1-1.307-.211,21.614,21.614,0,0,0-5.371-.586A21.649,21.649,0,0,0,6.1,5.448a6.115,6.115,0,0,1-1.307.211c-1.206,0-1.759-.8-3.592-3.45L.62,1.373a.631.631,0,0,1,.518-.99H21.8a.63.63,0,0,1,.518.99l-.577.833c-1.834,2.651-2.387,3.452-3.594,3.452ZM11.469,3.6a22.746,22.746,0,0,1,5.652.618,5.393,5.393,0,0,0,1.026.18c.514,0,.911-.531,2.45-2.754H2.342C3.88,3.867,4.278,4.4,4.791,4.4a5.4,5.4,0,0,0,1.026-.18A22.762,22.762,0,0,1,11.469,3.6Z" transform="translate(13.685 11.714)" fill-rule="evenodd"/>
      <path id="Trazado_1033133" data-name="Trazado 1033133" d="M1.105,13.839a.631.631,0,0,1-.631-.631V2.307a.631.631,0,0,1,.414-.593,11.643,11.643,0,0,1,4-.715h.677A.631.631,0,0,1,6.2,1.63V13.042a.631.631,0,0,1-.608.63.642.642,0,0,1-.652-.584,1.6,1.6,0,0,0-3.2.12.63.63,0,0,1-.63.632ZM1.736,2.758v8.077a2.852,2.852,0,0,1,3.2,0V2.262H4.889a10.337,10.337,0,0,0-3.154.5Z" transform="translate(12.69 30.545)" fill-rule="evenodd"/>
      <path id="Trazado_1033134" data-name="Trazado 1033134" d="M1.681,13.838a.631.631,0,0,1-.631-.631V1.63A.631.631,0,0,1,1.681,1h.684a11.653,11.653,0,0,1,3.994.713.632.632,0,0,1,.415.593V13.042a.631.631,0,0,1-.608.63.642.642,0,0,1-.652-.584,1.6,1.6,0,0,0-3.2.119.632.632,0,0,1-.631.631ZM2.312,2.261v8.574a2.852,2.852,0,0,1,3.2,0V2.755a10.334,10.334,0,0,0-3.147-.494H2.312Z" transform="translate(30.286 30.546)" fill-rule="evenodd"/>
      <path id="Trazado_1033135" data-name="Trazado 1033135" d="M1.306,6.954a.631.631,0,0,1-.631-.631V1.477a.631.631,0,0,1,1.261,0V6.323A.631.631,0,0,1,1.306,6.954Z" transform="translate(18.818 25.852)" fill-rule="evenodd"/>
      <path id="Trazado_1033136" data-name="Trazado 1033136" d="M1.626,6.954A.631.631,0,0,1,1,6.323V1.477a.631.631,0,0,1,1.261,0V6.323A.631.631,0,0,1,1.626,6.954Z" transform="translate(28.61 25.852)" fill-rule="evenodd"/>
      <path id="Trazado_1033137" data-name="Trazado 1033137" d="M28.112,12.11H1.035A.631.631,0,0,1,.4,11.479V2a.631.631,0,0,1,.631-.631H3.253A.631.631,0,0,1,3.884,2,1.6,1.6,0,0,0,7.09,2a.631.631,0,0,1,.631-.631h13.7A.631.631,0,0,1,22.057,2a1.6,1.6,0,1,0,3.206,0,.631.631,0,0,1,.631-.631h2.218A.631.631,0,0,1,28.742,2v9.482a.63.63,0,0,1-.63.631ZM1.665,10.848H27.481V2.628H26.454a2.865,2.865,0,0,1-5.589,0H8.282a2.865,2.865,0,0,1-5.589,0H1.665v8.22Z" transform="translate(10.541 41.756)" fill-rule="evenodd"/>
      <path id="Trazado_1033138" data-name="Trazado 1033138" d="M3.915,7.025A2.865,2.865,0,1,1,6.78,4.16,2.868,2.868,0,0,1,3.915,7.025Zm0-4.468a1.6,1.6,0,1,0,1.6,1.6A1.6,1.6,0,0,0,3.915,2.558Z" transform="translate(30.286 39.593)" fill-rule="evenodd"/>
      <path id="Trazado_1033139" data-name="Trazado 1033139" d="M3.339,7.025A2.865,2.865,0,1,1,6.2,4.16,2.868,2.868,0,0,1,3.339,7.025Zm0-4.468a1.6,1.6,0,1,0,1.6,1.6A1.6,1.6,0,0,0,3.339,2.558Z" transform="translate(12.69 39.593)" fill-rule="evenodd"/>
      <path id="Trazado_1033140" data-name="Trazado 1033140" d="M45.127,2.777H36.512a.631.631,0,0,1,0-1.262h8.615a.631.631,0,0,1,0,1.262Zm-35.692,0H.76a.631.631,0,0,1,0-1.262H9.435a.631.631,0,0,1,0,1.262Z" transform="translate(2.141 46.308)" fill-rule="evenodd"/>
      <path id="Trazado_1033141" data-name="Trazado 1033141" d="M12.2,4.714H1.293a.631.631,0,0,1-.631-.631V.769A.631.631,0,0,1,1.293.139H12.2a.631.631,0,0,1,.631.631V4.083a.631.631,0,0,1-.631.631ZM1.924,3.453h9.644V1.4H1.924Z" transform="translate(18.434 4.253)" fill-rule="evenodd"/>
      <path id="Trazado_1033142" data-name="Trazado 1033142" d="M7.428,9.755a.631.631,0,0,1-.442-.18A12.6,12.6,0,0,0,1.625,6.335a.63.63,0,0,1-.373-.922L3.687,1.195A.63.63,0,0,1,4.549.964L10.242,4.25a.63.63,0,0,1,.231.862l-2.5,4.327a.632.632,0,0,1-.461.31.612.612,0,0,1-.085.006ZM2.735,5.367A13.8,13.8,0,0,1,7.279,8.121L9.065,5.028l-4.6-2.656-1.729,3Z" transform="translate(33.848 26.867)" fill-rule="evenodd"/>
      <path id="Trazado_1033143" data-name="Trazado 1033143" d="M1.965,8.7a.631.631,0,0,1-.546-.946L5.3,1.033a.631.631,0,0,1,1.092.631L2.512,8.386a.631.631,0,0,1-.547.316Z" transform="translate(38.962 21.95)" fill-rule="evenodd"/>
      <path id="Trazado_1033144" data-name="Trazado 1033144" d="M2.51,8.163a.631.631,0,0,1-.625-.542L1.449,4.569a.634.634,0,0,1,.078-.4L3.452.831A.631.631,0,0,1,4.314.6L7.646,2.525a.631.631,0,0,1,.231.862L5.952,6.72a.632.632,0,0,1-.318.273L2.739,8.12a.637.637,0,0,1-.229.042Zm.219-3.556.293,2.05L4.971,5.9,6.469,3.3,4.229,2.009Z" transform="translate(42.269 15.778)" fill-rule="evenodd"/>
      <path id="Trazado_1033145" data-name="Trazado 1033145" d="M5.588,11.574A5.527,5.527,0,0,1,1.136,2.765a.62.62,0,0,1,.543-.255.631.631,0,0,1,.511.315L4.173,6.259l2.3-1.328L4.489,1.5A.631.631,0,0,1,4.965.554a5.527,5.527,0,1,1,.623,11.02ZM1.647,4.405A4.265,4.265,0,1,0,6.132,1.817L7.88,4.846a.631.631,0,0,1-.231.861L4.258,7.666A.631.631,0,0,1,3.4,7.435L1.647,4.405Z" transform="translate(-0.057 15.897)" fill-rule="evenodd"/>
      <path id="Trazado_1033146" data-name="Trazado 1033146" d="M5.186,9.458a.631.631,0,0,1-.547-.316L.374,1.755a.631.631,0,1,1,1.092-.631L5.731,8.512a.631.631,0,0,1-.545.946Z" transform="translate(7.045 24.728)" fill-rule="evenodd"/>
      <path id="Trazado_1033147" data-name="Trazado 1033147" d="M1.176,9.947a.631.631,0,0,1-.631-.631V2.068a.631.631,0,0,1,1.261,0V9.316A.631.631,0,0,1,1.176,9.947Z" transform="translate(14.853 43.919)" fill-rule="evenodd"/>
      <path id="Trazado_1033148" data-name="Trazado 1033148" d="M1.752,9.947a.631.631,0,0,1-.631-.631V2.068a.631.631,0,0,1,1.262,0V9.316A.631.631,0,0,1,1.752,9.947Z" transform="translate(32.449 43.919)" fill-rule="evenodd"/>
      <path id="Trazado_1033149" data-name="Trazado 1033149" d="M12.23,15.553a7.243,7.243,0,0,0,4.589-1.795.634.634,0,0,1,.137-.114,15.952,15.952,0,0,0,4.55-7.318.632.632,0,0,1,.407-.416,3.116,3.116,0,0,0,2.065-2.853A3.522,3.522,0,0,0,22.716.43l-.239.344c-1.834,2.651-2.387,3.452-3.594,3.452a6.141,6.141,0,0,1-1.307-.211,21.614,21.614,0,0,0-5.371-.586,21.649,21.649,0,0,0-5.371.586,6.115,6.115,0,0,1-1.307.211c-1.206,0-1.759-.8-3.592-3.45L1.713.457a3.523,3.523,0,0,0-1.23,2.6A3.117,3.117,0,0,0,2.548,5.911a.628.628,0,0,1,.406.416A15.954,15.954,0,0,0,7.5,13.642a.636.636,0,0,1,.144.12,7.241,7.241,0,0,0,4.585,1.791Z" transform="translate(12.95 13.147)" fill="#fec9a3" fill-rule="evenodd"/>
      <path id="Trazado_1033150" data-name="Trazado 1033150" d="M9.693,2.379A22.746,22.746,0,0,1,15.345,3a5.393,5.393,0,0,0,1.026.18c.514,0,.911-.531,2.45-2.754H.565C2.1,2.646,2.5,3.177,3.015,3.177A5.4,5.4,0,0,0,4.041,3a22.762,22.762,0,0,1,5.652-.618Z" transform="translate(15.462 12.935)" fill="#49648e" fill-rule="evenodd"/>
      <path id="Trazado_1033151" data-name="Trazado 1033151" d="M.548,10.875H19.953L19.289,5.31C18.857,1.689,14.3.039,10.246.039s-8.6,1.65-9.035,5.27L.548,10.875ZM15.7,7.745H4.8a.631.631,0,0,1-.631-.631V3.8A.631.631,0,0,1,4.8,3.17H15.7a.631.631,0,0,1,.631.631V7.114a.631.631,0,0,1-.631.631Z" transform="translate(14.93 1.222)" fill="#3c5174" fill-rule="evenodd"/>
      <path id="Trazado_1033152" data-name="Trazado 1033152" d="M.7,2.231h9.644V.179H.7Z" transform="translate(19.656 5.475)" fill="#d6d6d4" fill-rule="evenodd"/>
      <path id="Trazado_1033153" data-name="Trazado 1033153" d="M8.482,5.895a4.235,4.235,0,0,0-.426-3.236A4.283,4.283,0,0,0,4.91.561L6.659,3.59a.631.631,0,0,1-.231.861L3.036,6.41a.631.631,0,0,1-.862-.231L.425,3.15a4.265,4.265,0,0,0,5.944,5.4.636.636,0,0,1,.248-.143A4.237,4.237,0,0,0,8.482,5.895Z" transform="translate(1.165 17.153)" fill="#e6e6e6" fill-rule="evenodd"/>
      <path id="Trazado_1033154" data-name="Trazado 1033154" d="M.715.905v3.4l4.426,6.184L9.566,4.309V.906A8.05,8.05,0,0,1,5.141,2.3,8.05,8.05,0,0,1,.715.905Z" transform="translate(20.04 27.666)" fill="#fec9a3" fill-rule="evenodd"/>
      <path id="Trazado_1033155" data-name="Trazado 1033155" d="M1.484,3.161l.293,2.05,1.949-.76,1.5-2.595L2.984.563Z" transform="translate(43.514 17.223)" fill="#e6e6e6" fill-rule="evenodd"/>
      <path id="Trazado_1033156" data-name="Trazado 1033156" d="M17.5,3.571a2.874,2.874,0,0,1-2.164-2.164H2.749A2.874,2.874,0,0,1,.585,3.571V9.627H17.5V3.571Z" transform="translate(16.074 42.977)" fill="#808da4" fill-rule="evenodd"/>
      <path id="Trazado_1033157" data-name="Trazado 1033157" d="M3.635,9.627V3.571A2.874,2.874,0,0,1,1.471,1.407H.444v8.22H3.635Z" transform="translate(11.763 42.977)" fill="#808da4" fill-rule="evenodd"/>
      <path id="Trazado_1033158" data-name="Trazado 1033158" d="M1.161,3.571V9.627H4.352V1.407H3.325A2.874,2.874,0,0,1,1.161,3.571Z" transform="translate(33.671 42.977)" fill="#808da4" fill-rule="evenodd"/>
      <path id="Trazado_1033159" data-name="Trazado 1033159" d="M1.3,1.556V5.074H9.1a28.546,28.546,0,0,0-.293-3.519H1.3Z" transform="translate(37.981 47.529)" fill="#fec9a3" fill-rule="evenodd"/>
      <path id="Trazado_1033160" data-name="Trazado 1033160" d="M7.958,5.074V1.556H.449A28.523,28.523,0,0,0,.157,5.074h7.8Z" transform="translate(2.987 47.529)" fill="#fec9a3" fill-rule="evenodd"/>
      <g id="Grupo_1176795" data-name="Grupo 1176795" transform="translate(3.652 32.806)">
        <path id="Trazado_1033161" data-name="Trazado 1033161" d="M.173,15.112H7.467v-4.07a.631.631,0,0,1,.631-.631H9.685V1.07q-.268.122-.532.259a.635.635,0,0,1-.226.12C4.679,3.762,1.392,8.838.173,15.112Z" transform="translate(-0.173 -0.094)" fill="#3c5174" fill-rule="evenodd"/>
        <path id="Trazado_1033162" data-name="Trazado 1033162" d="M.656,11.356h12.45V1.04h-.775l-4.868,6.8a.63.63,0,0,1-1.026,0L1.569,1.04H.656V11.356Z" transform="translate(14.579 -1.04)" fill="#3c5174" fill-rule="evenodd"/>
        <path id="Trazado_1033163" data-name="Trazado 1033163" d="M1.232,1.071V10.4H2.825a.631.631,0,0,1,.631.631V15.1h7.3A21.859,21.859,0,0,0,5.139,3.823a.633.633,0,0,1-.134-.1A13.348,13.348,0,0,0,1.232,1.071Z" transform="translate(32.177 -0.087)" fill="#3c5174" fill-rule="evenodd"/>
      </g>
      <path id="Trazado_1033164" data-name="Trazado 1033164" d="M4.291,9.61V1.534q-.162-.052-.326-.1l-.01,0A10.307,10.307,0,0,0,1.143,1.04H1.091V9.614a2.852,2.852,0,0,1,3.2,0v0Z" transform="translate(31.508 31.767)" fill="#6b809b" fill-rule="evenodd"/>
      <path id="Trazado_1033165" data-name="Trazado 1033165" d="M3.716,2.818a1.6,1.6,0,1,0,0,.12q0-.05,0-.1c0-.007,0-.014,0-.022Z" transform="translate(13.911 40.814)" fill="#334562" fill-rule="evenodd"/>
      <path id="Trazado_1033166" data-name="Trazado 1033166" d="M1.091,2.959A1.6,1.6,0,0,0,4.3,2.938c0-.04,0-.08,0-.119a1.6,1.6,0,0,0-3.2.119c0,.007,0,.014,0,.021Z" transform="translate(31.508 40.814)" fill="#334562" fill-rule="evenodd"/>
      <path id="Trazado_1033167" data-name="Trazado 1033167" d="M3.714,9.609V1.04H3.668a10.337,10.337,0,0,0-3.154.5V9.613a2.852,2.852,0,0,1,3.2,0v0Z" transform="translate(13.911 31.767)" fill="#6b809b" fill-rule="evenodd"/>
      <path id="Trazado_1033168" data-name="Trazado 1033168" d="M45.973,23.32H.747a.631.631,0,0,1-.631-.631C.117,10.73,7.161,1,15.819,1h2.545a.632.632,0,0,1,.513.264l4.544,6.348,4.544-6.348A.631.631,0,0,1,28.479,1h2.414c8.633,0,15.661,9.673,15.7,21.584a.6.6,0,0,1,.009.106.632.632,0,0,1-.632.631ZM1.385,22.058H45.327c-.237-10.974-6.621-19.8-14.435-19.8H28.8l-4.868,6.8a.63.63,0,0,1-1.026,0l-4.868-6.8H15.82c-7.814,0-14.2,8.824-14.435,19.8Z" transform="translate(1.759 30.545)" fill-rule="evenodd"/>
      <path id="Trazado_1033169" data-name="Trazado 1033169" d="M5.763,6.672l1.784-3.09L5.26,2.262l-.013-.007-.015-.009L2.946.926l-1.729,3,.062.022A13.825,13.825,0,0,1,5.761,6.675l0,0Z" transform="translate(35.366 28.313)" fill="#ff5959" fill-rule="evenodd"/>
    </g>
  </g>
</svg>
